<?xml version="1.0" encoding="utf-8"?>
<!-- Generator: Adobe Illustrator 16.2.1, SVG Export Plug-In . SVG Version: 6.00 Build 0)  -->
<!DOCTYPE svg PUBLIC "-//W3C//DTD SVG 1.1//EN" "http://www.w3.org/Graphics/SVG/1.1/DTD/svg11.dtd">
<svg version="1.1" id="Layer_1" xmlns="http://www.w3.org/2000/svg" xmlns:xlink="http://www.w3.org/1999/xlink" x="0px" y="0px"
	 width="338.158px" height="82.797px" viewBox="57.41 22.676 338.158 82.797" enable-background="new 57.41 22.676 338.158 82.797"
	 xml:space="preserve">
<path fill="#FFFFFF" d="M390.802,60.084l-0.062,0.472l-4.018,30.887c-0.256,1.967-0.867,3.793-1.833,5.482
	c-0.968,1.691-2.163,3.164-3.583,4.422c-1.422,1.258-3.047,2.26-4.872,3.006c-1.827,0.748-3.685,1.119-5.57,1.119h-30.9
	c-1.967,0-3.746-0.371-5.339-1.119c-1.595-0.746-2.938-1.748-4.032-3.006c-1.096-1.258-1.906-2.729-2.433-4.422
	c-0.528-1.689-0.663-3.517-0.407-5.482l4.016-30.887c0.246-1.887,0.854-3.694,1.826-5.423c0.972-1.728,2.168-3.222,3.59-4.48
	c1.42-1.256,3.024-2.259,4.814-3.006c1.786-0.747,3.662-1.12,5.629-1.12h30.9c1.888,0,3.684,0.394,5.391,1.179l3.158-24.287h8.491
	L390.802,60.084z M381.06,56.547c-0.93-1.021-2.142-1.533-3.635-1.533h-30.899c-1.574,0-2.959,0.53-4.158,1.592
	c-1.199,1.061-1.9,2.378-2.105,3.95l-4.016,30.887c-0.205,1.574,0.154,2.89,1.078,3.949c0.924,1.062,2.17,1.592,3.744,1.592h30.899
	c1.572,0,2.959-0.529,4.158-1.592c1.199-1.061,1.901-2.375,2.104-3.949l4.018-30.887l0.046-0.354
	C382.399,58.788,381.987,57.57,381.06,56.547z M275.39,91.443c-0.256,1.967-0.867,3.793-1.834,5.482
	c-0.968,1.691-2.16,3.164-3.582,4.422s-3.047,2.26-4.873,3.006c-1.826,0.748-3.684,1.119-5.569,1.119h-43.404
	c-1.967,0-3.746-0.371-5.34-1.119c-1.594-0.746-2.938-1.748-4.031-3.006c-1.096-1.258-1.906-2.729-2.433-4.422
	c-0.529-1.689-0.663-3.517-0.408-5.482l4.017-30.887c0.245-1.887,0.853-3.694,1.825-5.423c0.971-1.728,2.168-3.222,3.59-4.48
	c1.42-1.256,3.024-2.259,4.813-3.006c1.787-0.747,3.663-1.12,5.63-1.12h30.9c1.887,0,3.646,0.374,5.279,1.12
	c1.633,0.748,2.995,1.75,4.092,3.006c1.092,1.258,1.903,2.732,2.433,4.421c0.526,1.691,0.669,3.478,0.423,5.364l-0.844,6.484
	c-0.324,1.887-0.984,3.637-1.979,5.247c-0.996,1.611-2.201,3.006-3.611,4.187c-1.412,1.179-2.988,2.121-4.731,2.828
	s-3.56,1.062-5.444,1.062h-36.444l-1.456,11.199c-0.204,1.572,0.155,2.889,1.079,3.949c0.924,1.062,2.17,1.592,3.744,1.592h43.404
	c1.572,0,2.959-0.53,4.158-1.592s1.9-2.377,2.105-3.949l4.015-30.894c0.256-1.964,0.864-3.792,1.833-5.482
	c0.967-1.689,2.16-3.163,3.582-4.421c1.421-1.256,3.025-2.259,4.814-3.006c1.787-0.747,3.664-1.12,5.629-1.12h30.901
	c1.887,0,3.646,0.374,5.279,1.12c1.631,0.748,2.996,1.75,4.09,3.006c1.094,1.258,1.904,2.732,2.434,4.421
	c0.525,1.691,0.662,3.518,0.407,5.482h-8.491c0.204-1.571-0.155-2.889-1.078-3.95c-0.924-1.062-2.174-1.592-3.744-1.592h-30.9
	c-1.573,0-2.959,0.53-4.157,1.592c-1.199,1.061-1.902,2.378-2.106,3.95L275.39,91.443z M257.331,56.606
	c-0.924-1.062-2.172-1.592-3.744-1.592h-30.9c-1.574,0-2.959,0.53-4.158,1.592c-1.199,1.061-1.901,2.378-2.105,3.95l-1.457,11.201
	h36.445c1.491,0,2.838-0.512,4.03-1.532c1.195-1.021,1.929-2.279,2.201-3.773l0.768-5.894
	C258.614,58.985,258.255,57.667,257.331,56.606z M199.788,91.443c-0.255,1.967-0.867,3.793-1.833,5.482
	c-0.968,1.691-2.162,3.164-3.583,4.422c-1.422,1.258-3.027,2.26-4.814,3.006c-1.789,0.748-3.625,1.119-5.512,1.119h-30.901
	c-1.966,0-3.746-0.371-5.338-1.119c-1.595-0.746-2.939-1.748-4.032-3.006c-1.096-1.258-1.906-2.729-2.433-4.422
	c-0.528-1.689-0.663-3.517-0.407-5.482l4.016-30.887l0.061-0.472l4.752-36.548h8.492l-3.143,24.168
	c1.743-0.708,3.636-1.061,5.681-1.061h30.901c1.887,0,3.626,0.374,5.221,1.12c1.593,0.748,2.937,1.75,4.032,3.006
	c1.093,1.258,1.904,2.732,2.433,4.421c0.527,1.691,0.668,3.478,0.423,5.365L199.788,91.443z M194.352,56.606
	c-0.924-1.062-2.172-1.592-3.744-1.592h-30.9c-1.495,0-2.838,0.512-4.033,1.533c-1.194,1.022-1.929,2.281-2.201,3.773l-0.031,0.236
	l-4.016,30.887c-0.205,1.574,0.155,2.89,1.079,3.949c0.923,1.062,2.17,1.592,3.744,1.592h30.9c1.572,0,2.958-0.529,4.158-1.592
	c1.199-1.061,1.901-2.375,2.106-3.949l4.016-30.887C195.635,58.985,195.275,57.667,194.352,56.606z"/>
<g>
	<path fill="#C9DA2B" d="M87.255,27.378c1.536-1.536,3.312-2.702,5.327-3.503c2.015-0.798,4.047-1.198,6.094-1.199
		c2.047,0.001,4.079,0.401,6.094,1.199c2.016,0.801,3.791,1.967,5.327,3.503l25.145,25.144c1.6,1.6,2.783,3.392,3.551,5.375
		c0.768,1.985,1.152,4,1.151,6.046c0,2.048-0.4,4.079-1.2,6.093c-0.799,2.019-1.967,3.791-3.502,5.328l-25.145,25.144
		c-1.6,1.602-3.39,2.784-5.374,3.551c-1.984,0.771-4,1.153-6.046,1.151c-2.047,0.002-4.062-0.382-6.046-1.151
		c-1.984-0.767-3.774-1.949-5.374-3.551L62.111,75.364c-1.536-1.537-2.704-3.312-3.502-5.328c-0.8-2.015-1.199-4.045-1.199-6.093
		c0-2.046,0.383-4.061,1.151-6.046c0.768-1.982,1.951-3.774,3.55-5.375L87.255,27.378z M103.187,34.288
		c-1.279-1.279-2.783-1.919-4.511-1.919c-1.728,0-3.231,0.64-4.51,1.919L69.021,59.433c-1.281,1.28-1.92,2.783-1.919,4.511
		c-0.001,1.728,0.64,3.231,1.919,4.511L94.165,93.6c1.281,1.279,2.783,1.918,4.51,1.918c1.727,0,3.229-0.639,4.511-1.918
		l25.144-25.145c1.279-1.279,1.92-2.783,1.919-4.511c0-1.728-0.639-3.23-1.919-4.511L103.187,34.288z"/>
</g>
</svg>
